<svg xmlns="http://www.w3.org/2000/svg" width="187" height="71" viewBox="0 0 187 71">
  <g id="Group_1" data-name="Group 1" transform="translate(-52 -26.227)">
    <text id="M_VIT" data-name="M   VIT" transform="translate(52 82.227)" fill="#fff" font-size="58" font-family="Montserrat-BoldItalic, Montserrat" font-weight="700" font-style="italic" letter-spacing="0.008em"><tspan x="0" y="0" xml:space="preserve">M   V</tspan><tspan y="0" font-size="35" letter-spacing="0.05em">IT</tspan></text>
    <path id="Icon_material-camera" data-name="Icon material-camera" d="M19.7,22.184,30.466,3.542A23.259,23.259,0,0,0,25.569,3,22.533,22.533,0,0,0,11.305,8.078l8.26,14.331ZM47.1,18.8A22.625,22.625,0,0,0,33.558,4.49L25.3,18.8H47.1Zm.587,2.257h-16.9l.655,1.128L42.18,40.8a22.367,22.367,0,0,0,5.958-15.234A22.848,22.848,0,0,0,47.686,21.055ZM17.76,25.569l-8.8-15.234A22.473,22.473,0,0,0,3,25.569a22.848,22.848,0,0,0,.451,4.514h16.9ZM4.038,32.34A22.625,22.625,0,0,0,17.58,46.648L25.84,32.34Zm25.435,0L20.671,47.6a23.259,23.259,0,0,0,4.9.542A22.533,22.533,0,0,0,39.832,43.06l-8.26-14.331Z" transform="translate(109.294 36.107)" fill="#fff"/>
  </g>
</svg>
